# xmcd
#
# Track frame offsets: 
#        150
#        17487
#        34921
#        58713
#        85823
#        106982
#        129580
#        152111
#        167812
#        188510
#        208755
#
# Disc length: 2982 seconds
#
# Revision: 0
# Processed by: cddbd v1.5.2PL0 Copyright (c) Steve Scherf et al.
# Submitted via: ExactAudioCopy v0.95a4
#
DISCID=8b0ba40b
DTITLE=Loni Rose - The Shine Sessions
DYEAR=2008
DGENRE=Country
TTITLE0=Wrong Way Back
TTITLE1=Don't Give Up
TTITLE2=Jericho
TTITLE3=Nobody's Daughter
TTITLE4=Trying Hard
TTITLE5=Soft Place to Fall
TTITLE6=The Way You Love
TTITLE7=Dangerous
TTITLE8=Until
TTITLE9=I Want to Be with You
TTITLE10=Shine
EXTD=
EXTT0=
EXTT1=
EXTT2=
EXTT3=
EXTT4=
EXTT5=
EXTT6=
EXTT7=
EXTT8=
EXTT9=
EXTT10=
PLAYORDER=
